# xmcd
#
# Track frame offsets: 
#        150
#        26362
#        46214
#        64580
#        78723
#        98966
#        117417
#        135979
#        152406
#        186527
#        206253
#        225678
#        249903
#        273453
#        293779
#
# Disc length: 4191 seconds
#
# Revision: 1
# Processed by: cddbd v1.4PL0 Copyright (c) Steve Scherf et al.
# Submitted via: ExactAudioCopy v0.90b4
#
DISCID=c9105d0f
DTITLE=Samson - Before The Storm
DYEAR=2002
DGENRE=Metal
TTITLE0=Dangerzone
TTITLE1=Stealing Away
TTITLE2=Red Skies
TTITLE3=I'll Be Round
TTITLE4=Test Of Time
TTITLE5=Life On The Run
TTITLE6=Turn Out The Lights
TTITLE7=Losing My Grip
TTITLE8=Young Idea
TTITLE9=Running Out Of Time
TTITLE10=Driving With Z.Z.
TTITLE11=Living , Loving , Lying
TTITLE12=Pyramid To The Stars
TTITLE13=Front Page News
TTITLE14=Riding With The Angels
EXTD=YEAR: 2002 ID3G: 0
EXTT0=
EXTT1=
EXTT2=
EXTT3=
EXTT4=
EXTT5=
EXTT6=
EXTT7=
EXTT8=
EXTT9=
EXTT10=
EXTT11=
EXTT12=
EXTT13=
EXTT14=
PLAYORDER=
